<svg width="19" height="21" viewBox="0 0 19 21" fill="none" xmlns="http://www.w3.org/2000/svg">
<path d="M10.811 6.2602L10.5265 7.1791C10.2933 7.93207 10.1768 8.30855 10.2664 8.60589C10.3389 8.84644 10.4982 9.05378 10.7151 9.19021C10.9833 9.35884 11.389 9.35884 12.2003 9.35884H12.6319C15.3778 9.35884 16.7507 9.35884 17.3991 10.1716C17.4733 10.2645 17.5392 10.3633 17.5962 10.4669C18.0951 11.3734 17.5279 12.5946 16.3936 15.0369C15.3527 17.2781 14.8322 18.3988 13.8658 19.0584C13.7723 19.1222 13.6761 19.1824 13.5776 19.2389C12.5603 19.8221 11.2997 19.8221 8.77856 19.8221H8.23174C5.17734 19.8221 3.65014 19.8221 2.70126 18.9027C1.75238 17.9833 1.75238 16.5036 1.75238 13.5441V12.504C1.75238 10.9487 1.75238 10.1711 2.02839 9.45932C2.30439 8.74757 2.8329 8.16235 3.8899 6.99189L8.26114 2.15148C8.37077 2.03009 8.4256 1.96938 8.47393 1.92732C8.92507 1.53472 9.62133 1.57891 10.0158 2.02518C10.058 2.07299 10.1042 2.14011 10.1965 2.27432C10.341 2.48427 10.4132 2.58925 10.4762 2.69326C11.0397 3.62434 11.2102 4.73037 10.9521 5.78037C10.9233 5.89765 10.8858 6.01857 10.811 6.2602Z" stroke="#141B34" stroke-width="1.60259" stroke-linecap="round" stroke-linejoin="round"/>
</svg>
